<svg xmlns="http://www.w3.org/2000/svg" width="16" height="16" viewBox="0 0 16 16"><g fill="none" fill-rule="evenodd"><path fill="#FFF" d="M.727 0H16v16.296H.727z"/><path fill="#006FCF" d="M10.287 7.865H8.892l-.374-.91h-2.03l-.374.91H4.753l1.985-4.542H8.31l1.958 4.5V3.322l1.913.007.985 2.792.991-2.799H16v4.543l-1.185.01v-3.12l-1.119 3.11h-1.082l-1.142-3.12v3.12h-1.185zm-.016.638h1.605l1.283 1.44 1.286-1.44H16v.035l-2.054 2.235L16 12.985v.064h-1.57l-1.306-1.455-1.292 1.455H6.478V8.502h3.793zm0 .02V9.55H7.706v.71h2.504v1.03H7.706v.7h2.565v1.038l2.08-2.255-2.08-2.25zm-4.475-.007v5.172l6.327.013.993-1.126 1 1.122H16v-1.643l-1.18-1.293L16 9.48V2.69h-2.32l-.525 1.493-.524-1.493H9.596v1.993L8.732 2.69h-2.46L3.746 8.516h2.05zM0 16.261V0h16v16.26H0zM6.908 5.936h1.19L7.504 4.49l-.596 1.446z"/></g></svg>