<svg xmlns="http://www.w3.org/2000/svg" width="29" height="16" viewBox="0 0 29 16"><defs><linearGradient id="a" x1="50%" x2="50%" y1="0%" y2="100%"><stop offset="0%" stop-color="#E0481E"/><stop offset="100%" stop-color="#F59314"/></linearGradient></defs><g fill="none" fill-rule="evenodd"><g fill="#201D1C" fill-rule="nonzero"><path d="M2.466 9.638c-.278.267-.64.384-1.212.384h-.238V6.825h.238c.572 0 .92.109 1.212.39.307.291.49.741.49 1.204 0 .465-.183.928-.49 1.219zM1.431 6.006h-1.3v4.834h1.293c.688 0 1.185-.172 1.62-.558a2.49 2.49 0 0 0 .825-1.856c0-1.426-1.001-2.42-2.438-2.42zm2.846 4.834h.886V6.006h-.886zM7.33 7.861c-.532-.21-.688-.348-.688-.609 0-.304.278-.536.66-.536.265 0 .484.116.714.392l.464-.646a1.92 1.92 0 0 0-1.335-.536c-.803 0-1.416.594-1.416 1.385 0 .666.285 1.007 1.117 1.326.347.13.523.217.613.275a.588.588 0 0 1 .265.5.666.666 0 0 1-.688.683c-.422 0-.763-.225-.967-.645l-.572.586c.408.638.898.92 1.573.92.92 0 1.566-.65 1.566-1.587 0-.768-.298-1.116-1.306-1.508m1.586.565c0 1.421 1.048 2.523 2.397 2.523.382 0 .708-.08 1.111-.281v-1.11c-.354.377-.668.53-1.07.53-.892 0-1.525-.69-1.525-1.669 0-.928.653-1.66 1.484-1.66.423 0 .743.16 1.111.544v-1.11c-.389-.21-.709-.297-1.09-.297-1.342 0-2.418 1.125-2.418 2.53m10.533.827l-1.211-3.247h-.968l1.927 4.958h.477l1.963-4.958h-.961l-1.227 3.247m2.588 1.587h2.513v-.818h-1.627V8.717h1.567v-.819h-1.567V6.825h1.627v-.819h-2.513v4.834m4.243-2.608h-.258V6.767h.273c.551 0 .851.246.851.717 0 .486-.3.748-.865.748zm1.778-.799c0-.905-.586-1.427-1.607-1.427h-1.314v4.834h.885V8.898h.115l1.227 1.942h1.09l-1.43-2.036c.667-.145 1.034-.63 1.034-1.371zm.51-1.359h-.033v-.191h.034c.094 0 .143.03.143.094 0 .065-.05.097-.145.097zm.335-.1c0-.146-.11-.226-.302-.226h-.257v.733h.19v-.284l.224.284h.233l-.263-.302c.113-.028.175-.103.175-.205z"/><path d="M28.511 6.572a.299.299 0 0 1-.294-.303c0-.17.13-.305.294-.305a.3.3 0 0 1 .293.305.299.299 0 0 1-.293.303zm.002-.674a.368.368 0 0 0-.37.37c0 .206.166.37.37.37.2 0 .364-.166.364-.37a.37.37 0 0 0-.364-.37z"/></g><path fill="url(#a)" d="M.009 2.587v.002c0 1.42 1.082 2.571 2.415 2.571 1.336 0 2.418-1.152 2.418-2.571v-.002c0-1.42-1.082-2.571-2.418-2.571C1.091.016.01 1.168.01 2.587" transform="matrix(1 0 0 -1 12.704 11.028)"/></g></svg>