<svg xmlns="http://www.w3.org/2000/svg" width="19" height="16" viewBox="0 0 19 16"><g fill="none" fill-rule="evenodd"><path fill="#F22F12" d="M5.685 2.343c3.093 0 5.6 2.532 5.6 5.657s-2.507 5.657-5.6 5.657c-3.094 0-5.6-2.532-5.6-5.657s2.506-5.657 5.6-5.657"/><path fill="#F79F1A" d="M13.151 2.429c3.055.085 5.516 2.571 5.43 5.657-.084 3.085-2.545 5.571-5.6 5.485-3.054-.085-5.43-2.485-5.43-5.571s2.546-5.571 5.6-5.571"/><path fill="#FF5F01" d="M7.552 8c0-1.629.679-3.086 1.866-4.114 2.29 1.971 2.461 5.485.51 7.714l-.51.514A5.368 5.368 0 0 1 7.552 8"/></g></svg>