<svg xmlns="http://www.w3.org/2000/svg" width="23" height="16" viewBox="0 0 23 16"><path fill="#1A1F71" fill-rule="evenodd" d="M4.557 8.75l.002.004.18 1.028 1.804-4.948 1.894.093-2.887 7.19H3.657l-1.623-6.35c.074.042.147.084.22.129a5.718 5.718 0 0 0-2.115-.877v-.185h2.977c.36 0 .722.28.811.652l.632 3.268c0-.001 0-.003-.002-.004zm14.431.752h1.533c-.09-.374-.45-2.054-.45-2.054l-.092-.654c-.089.28-.27.654-.27.654s-.54 1.68-.72 2.054zm2.255-4.668l1.442 7.188H20.88s-.09-.84-.18-1.12h-2.344c-.09.186-.36 1.12-.36 1.12h-1.895l2.706-6.628c.18-.375.54-.655.992-.56h1.443zm-4.69.185l-.27 1.588h-.09a3.51 3.51 0 0 0-1.353-.28c-.723 0-1.082.374-1.082.654 0 .373.36.56.992.934 1.082.467 1.533 1.12 1.533 1.96 0 1.494-1.264 2.428-3.157 2.428-.721 0-1.443-.094-2.074-.374l.27-1.588.271.095c.541.28 1.082.372 1.714.372.45.094.992-.279 1.082-.746.09-.374-.18-.56-.902-.934-.902-.28-1.533-1.027-1.624-1.96 0-1.495 1.263-2.429 3.067-2.429.54 0 1.082.095 1.623.28zm-8.477 7.097l1.172-7.19h1.804l-1.172 7.19H8.076z"/></svg>